<svg id="Group_13" data-name="Group 13" xmlns="http://www.w3.org/2000/svg" xmlns:xlink="http://www.w3.org/1999/xlink" width="745.434" height="72.438" viewBox="0 0 745.434 72.438">
  <defs>
    <clipPath id="clip-path">
      <rect id="Rectangle_14" data-name="Rectangle 14" width="745.432" height="72.438" fill="#f66"/>
    </clipPath>
  </defs>
  <path id="Path_26" data-name="Path 26" d="M44.143.214V26.389H18.716V.214H0V69.868H18.716V42.711H44.143V69.868H62.859V.214Z" transform="translate(0 1.177)" fill="#f66"/>
  <path id="Path_27" data-name="Path 27" d="M48.321,19.541l8.493,22.273H39.828ZM39.249.214,10.044,69.869H29.137l5.2-13.631H62.316l5.2,13.631H86.989L57.679.214Z" transform="translate(55.275 1.18)" fill="#f66"/>
  <path id="Path_28" data-name="Path 28" d="M92.437.214,76.673,27.923,61.047.214H41.192L66.535,44.63V69.868H85.258v-24.8L110.587.214Z" transform="translate(226.688 1.177)" fill="#f66"/>
  <g id="Group_12" data-name="Group 12" transform="translate(0.001 0)">
    <g id="Group_11" data-name="Group 11" clip-path="url(#clip-path)">
      <path id="Path_29" data-name="Path 29" d="M115.94,40.514A18.107,18.107,0,0,0,107.811,34c-.423-.176-.93-.247-1.372-.4a17.314,17.314,0,0,0,6.523-5.716,16.978,16.978,0,0,0,2.647-9.449,15.992,15.992,0,0,0-6.425-13.136Q102.755.221,89.616.214H55.962V69.869H91.5q13.422,0,20.374-5.072a16.414,16.414,0,0,0,6.945-14.027,17.9,17.9,0,0,0-2.881-10.255M87.255,14.449q4.721,0,7.088,1.645A5.787,5.787,0,0,1,96.7,21.213a5.732,5.732,0,0,1-2.361,4.975q-2.37,1.7-7.088,1.691H74.392V14.449ZM97.458,53.9Q95,55.643,90.084,55.64H74.392V41.515H90.084q4.916,0,7.375,1.736a6.087,6.087,0,0,1,2.458,5.326,6.075,6.075,0,0,1-2.458,5.32" transform="translate(307.965 1.18)" fill="#f66"/>
      <path id="Path_30" data-name="Path 30" d="M94.674.214,65.469,69.862H84.556l5.2-13.631h27.976l5.2,13.631h19.477L113.1.214Zm.579,41.594,8.493-22.273,8.493,22.273Z" transform="translate(360.283 1.18)" fill="#f66"/>
      <path id="Path_31" data-name="Path 31" d="M126.728,34.974a31.384,31.384,0,0,0-7.322-3.583,78.956,78.956,0,0,0-7.986-2.237c-2.686-.592-5.124-1.177-7.329-1.736A18.326,18.326,0,0,1,98.7,25.226a4.229,4.229,0,0,1-2.074-3.733,4.921,4.921,0,0,1,1.034-2.985,7.418,7.418,0,0,1,3.408-2.289,17.932,17.932,0,0,1,6.236-.891,33.313,33.313,0,0,1,8.987,1.294,39.539,39.539,0,0,1,9.351,4.077l5.671-14.528a36.772,36.772,0,0,0-11.107-4.63A53.583,53.583,0,0,0,107.394,0Q97.659,0,91.136,3.089A22.471,22.471,0,0,0,81.4,11.25a20.578,20.578,0,0,0-3.213,11.237,18.994,18.994,0,0,0,2.036,9.254,17.212,17.212,0,0,0,5.339,5.97,29.632,29.632,0,0,0,7.374,3.681,69.381,69.381,0,0,0,7.986,2.237c2.614.566,5.046,1.164,7.277,1.795a20.174,20.174,0,0,1,5.437,2.289,4.141,4.141,0,0,1,2.081,3.635,4.631,4.631,0,0,1-1.086,3.076,6.906,6.906,0,0,1-3.408,2,22.747,22.747,0,0,1-6.289.689A36.205,36.205,0,0,1,93.36,55.172,42.261,42.261,0,0,1,83.1,50.25L76.966,64.882A39.775,39.775,0,0,0,89.107,70.3a57.279,57.279,0,0,0,15.744,2.14q9.823,0,16.349-3.082a22.673,22.673,0,0,0,9.781-8.213,20.439,20.439,0,0,0,3.265-11.192,18.116,18.116,0,0,0-2.081-9.1,17.218,17.218,0,0,0-5.437-5.872" transform="translate(423.553 0.002)" fill="#f66"/>
      <path id="Path_32" data-name="Path 32" d="M151.224.214H130.713L105.091,29.153V.214H86.661V69.869h18.43V52.414l6.952-7.836L131,69.869h21.733L124.34,31.078Z" transform="translate(476.905 1.179)" fill="#f66"/>
      <path id="Path_33" data-name="Path 33" d="M115.585,41.808h29.4V27.176h-29.4V15.536h33.374V.214h-51.8V69.863h53.026V54.541h-34.6Z" transform="translate(534.657 1.182)" fill="#f66"/>
      <path id="Path_34" data-name="Path 34" d="M105.514.214v15.62h20.322V69.869h18.716V15.834h20.225V.214Z" transform="translate(580.654 1.179)" fill="#f66"/>
      <path id="Path_35" data-name="Path 35" d="M36.621,30.025a15.419,15.419,0,1,1,30.838-.065v.065a7.176,7.176,0,1,0,14.352,0,29.771,29.771,0,0,0-59.543-.085v.085a7.176,7.176,0,1,0,14.352,0" transform="translate(122.549 1.185)" fill="#f66"/>
      <path id="Path_36" data-name="Path 36" d="M46.752,30.024a15.419,15.419,0,0,1,30.838-.065v.065a7.176,7.176,0,1,0,14.352,0A29.771,29.771,0,0,0,32.4,29.94v.085a7.176,7.176,0,1,0,14.352,0" transform="translate(178.301 1.18)" fill="#f66"/>
    </g>
  </g>
</svg>
